<?xml version="1.0" encoding="UTF-8"?>
<svg version="1.1" viewBox="0 0 1600 264" width="180" height="30" xmlns="http://www.w3.org/2000/svg">
<path transform="translate(39,77)" d="m0 0c12.8-0.07 25.6-0.12 38.4-0.16 5.94-0.01 11.9-0.03 17.8-0.07 5.74-0.03 11.5-0.05 17.2-0.05 2.19-0.01 4.37-0.02 6.55-0.04 32.2-0.23 32.2-0.23 44 9.32 5.29 5.56 7.24 11.8 7.29 19.4 0.01 1.25 0.03 2.49 0.04 3.78 0 1.35 0 2.7 0.01 4.05 0 1.41 0.01 2.81 0.02 4.21 0.01 2.94 0.01 5.87 0.01 8.81 0 3.73 0.03 7.47 0.06 11.2 0.02 2.89 0.03 5.79 0.03 8.69 0 1.37 0.01 2.75 0.02 4.12 0.1 9.02-0.14 17.7-6.3 24.8-7.04 6.91-16.6 10-26.3 10h-3.03c-1.07 0-2.14-0.01-3.24-0.01s-2.2-0.01-3.34-0.01c-3.51 0-7.03-0.01-10.5-0.03-2.39 0-4.77-0.01-7.16-0.01-5.84-0.01-11.7-0.03-17.5-0.05v-23c4.35-0.06 4.35-0.06 8.79-0.11 2.82-0.05 5.64-0.1 8.45-0.15 1.96-0.04 3.91-0.06 5.87-0.09 2.81-0.03 5.62-0.08 8.43-0.14 1.31-0.01 1.31-0.01 2.64-0.02 0.82-0.02 1.64-0.04 2.49-0.06 0.72-0.01 1.43-0.02 2.17-0.03 2.97-0.55 4.8-1.53 7.16-3.4 0.74-2.4 0.74-2.4 0.62-5.16 0-1.05 0.01-2.1 0.02-3.18-0.01-1.14-0.03-2.27-0.05-3.44v-3.53c0-2.47-0.02-4.93-0.05-7.4-0.04-3.78-0.04-7.55-0.03-11.3-0.01-2.39-0.03-4.79-0.04-7.18v-3.44c-0.03-1.57-0.03-1.57-0.05-3.18-0.01-1.39-0.01-1.39-0.03-2.81-0.25-2.35-0.25-2.35-1.44-4.17-3.05-1.85-6.13-1.43-9.58-1.26l-4.83 0.15c-1.28 0.05-1.28 0.05-2.58 0.1-4.55 0.16-9.09 0.21-13.6 0.29-5.78 0.09-11.6 0.21-17.3 0.46-31.2 1.29-31.2 1.29-39.3-4.13-5.25-5.34-11.7-13.9-11.7-21.8z" fill="#000002"/>
<path transform="translate(309,55)" d="m0 0c5.85 4.85 11.2 10.1 16.6 15.5 0.95 0.95 1.89 1.89 2.83 2.84 2.02 2.02 4.04 4.05 6.06 6.07l9.6 9.63c7.37 7.38 14.7 14.8 22.1 22.2 6.75 6.78 13.5 13.6 20.3 20.3 3.17 3.18 6.34 6.36 9.52 9.55 1.98 1.99 3.96 3.97 5.94 5.96 1.35 1.34 2.69 2.69 4.03 4.04 5.59 5.59 11.3 11 17.6 15.8 2.41 3.34 2.01 6.86 1.91 10.8-0.01 0.84-0.01 1.68-0.02 2.54-0.02 2.67-0.07 5.34-0.12 8.01-0.02 1.81-0.04 3.62-0.05 5.44-0.05 4.44-0.12 8.87-0.2 13.3-3.35-1.46-5.54-3.29-8.11-5.88-0.81-0.8-1.62-1.61-2.45-2.45-0.88-0.89-1.76-1.77-2.67-2.69-0.94-0.95-1.89-1.89-2.83-2.83-2.03-2.04-4.06-4.07-6.08-6.11-3.21-3.23-6.42-6.45-9.64-9.67-5.09-5.11-10.2-10.2-15.3-15.3-9.08-9.13-18.2-18.3-27.3-27.4-3.19-3.19-6.38-6.39-9.56-9.59-1.99-2.01-3.98-4.01-5.98-6-1.35-1.36-2.7-2.72-4.04-4.08-5.53-5.53-11.2-10.7-17.2-15.8-3.41-2.92-5.29-5.04-5.69-9.6 0-1.62 0.04-3.23 0.11-4.84 0.01-0.86 0.02-1.72 0.03-2.6 0.04-2.71 0.12-5.42 0.21-8.13 0.04-1.84 0.07-3.69 0.1-5.54 0.08-4.51 0.2-9.01 0.34-13.5z" fill="#000002"/>
<path transform="translate(869,55)" d="m0 0c5.85 4.85 11.2 10.1 16.6 15.5 0.95 0.95 1.89 1.89 2.83 2.84 2.02 2.02 4.04 4.05 6.06 6.07l9.6 9.63c7.37 7.38 14.7 14.8 22.1 22.2 6.75 6.78 13.5 13.6 20.3 20.3 3.17 3.18 6.34 6.36 9.52 9.55 1.98 1.99 3.96 3.97 5.94 5.96 1.35 1.34 2.69 2.69 4.03 4.04 5.58 5.59 11.2 11.1 17.6 15.8 2.46 3.43 2.01 6.93 1.91 11-0.01 0.86-0.01 1.72-0.02 2.61-0.02 2.74-0.07 5.48-0.12 8.22-0.02 1.86-0.04 3.72-0.05 5.58-0.05 4.56-0.12 9.11-0.2 13.7-5.82-4.83-11.2-10-16.5-15.4-1.42-1.42-2.84-2.85-4.26-4.27-1.51-1.51-3.02-3.03-4.53-4.55-3.17-3.18-6.33-6.35-9.5-9.52-7.3-7.31-14.6-14.6-21.9-21.9-6.68-6.71-13.4-13.4-20-20.1-3.15-3.15-6.29-6.29-9.42-9.45-1.49-1.49-2.98-2.98-4.46-4.47-1.81-1.8-3.61-3.61-5.41-5.42-5.74-5.75-11.6-11.2-18-16.3-2.95-3.82-2.66-6.96-2.52-11.6 0.01-0.86 0.02-1.72 0.02-2.6 0.03-2.73 0.09-5.46 0.16-8.19 0.02-1.86 0.05-3.71 0.07-5.57 0.05-4.54 0.14-9.08 0.24-13.6z" fill="#000002"/>
<path transform="translate(658 76.8)" d="m0 0c1.89 0 3.78 0.01 5.67 0.01 4.94 0.01 9.88 0.03 14.8 0.05 5.05 0.02 10.1 0.03 15.2 0.04 9.9 0.02 19.8 0.05 29.7 0.1 0.03 3.81 0.05 7.62 0.06 11.4 0.01 1.09 0.02 2.18 0.03 3.3 0 1.04 0.01 2.07 0.01 3.14 0 0.95 0.01 1.91 0.02 2.9-0.12 2.23-0.12 2.23-1.12 3.23-2.51 0.1-4.99 0.15-7.5 0.15-0.78 0.01-1.57 0.01-2.38 0.02-1.71 0.01-3.42 0.02-5.13 0.02-2.71 0.02-5.42 0.04-8.12 0.06-7.7 0.06-15.4 0.11-23.1 0.15-4.7 0.02-9.4 0.05-14.1 0.1-1.79 0.01-3.59 0.02-5.38 0.02-2.51 0.01-5.02 0.03-7.53 0.06-1.12-0.01-1.12-0.01-2.26-0.01-2.92 0.05-4.99 0.09-7.46 1.75-1.72 2.78-1.39 5.46-1.35 8.68 0.01 1.85 0.01 1.85 0.01 3.75 0.06 3.39 0.06 3.39 2.3 6.25 2.59 0.86 4.34 1.17 7.01 1.31 0.69 0.04 1.37 0.08 2.07 0.12 0.86 0.04 1.72 0.08 2.61 0.13 2.74 0.14 5.49 0.29 8.31 0.44v22c-35.5 0.91-35.5 0.91-47.1-9.52-5.9-7.72-6.5-15-6.34-24.6 0-1.13-0.01-2.26-0.02-3.43 0.07-8.89 1.33-16.2 7.54-22.9 12.1-10.1 28.9-8.89 43.6-8.8z" fill="#000002"/>
<path transform="translate(1506,77)" d="m0 0h31v108h-31v-39c-4.91 0.29-9.82 0.58-14.9 0.88-15.7 0.42-15.7 0.42-20.3-3.79-2.67-3.4-4.23-7.11-5.86-11.1-1.33-2-2.66-4.01-4-6v-2h45v-47z" fill="#000002"/>
<path transform="translate(185,108)" d="m0 0h31v54h77v23h-108v-77z" fill="#000002"/>
<path transform="translate(1167,108)" d="m0 0h30v54h78v23h-108v-77z" fill="#000002"/>
<path transform="translate(1342 76.9)" d="m0 0c1.78 0.01 3.55 0.02 5.33 0.03 4.31 0.02 8.61 0.05 12.9 0.09 0.03 3.82 0.05 7.63 0.06 11.4 0.01 1.09 0.02 2.18 0.03 3.3 0 1.04 0 2.07 0.01 3.14 0 0.95 0.01 1.91 0.01 2.9-0.11 2.22-0.11 2.22-1.11 3.22-2.57 0.14-5.11 0.22-7.68 0.25-1.59 0.03-3.17 0.07-4.75 0.1-2.51 0.05-5.01 0.09-7.52 0.13-2.41 0.04-4.82 0.09-7.23 0.15-0.76 0-1.51 0.01-2.28 0.02-4.23-0.04-4.23-0.04-7.54 2.35-0.29 2.43-0.29 2.43-0.23 5.28v3.34c0.01 1.19 0.02 2.38 0.03 3.61 0.01 1.83 0.01 1.83 0.01 3.69 0.01 3.9 0.04 7.81 0.06 11.7 0.02 2.64 0.02 5.28 0.03 7.92 0.02 6.49 0.06 13 0.1 19.4 1.98 1 3.96 1.99 6 3v23c-10.6 0-21-0.58-29.6-7.52-8.44-8.71-8.74-19.1-8.73-30.6-0.01-1.25-0.01-2.51-0.01-3.8-0.01-2.64-0.01-5.28-0.01-7.92 0.01-2.69 0-5.38-0.02-8.07-0.02-3.9-0.02-7.81-0.02-11.7-0.01-1.19-0.02-2.39-0.03-3.61 0.05-9.95 1.21-18.7 8.32-26 12.3-10.4 28.7-9.03 43.8-8.88z" fill="#000002"/>
<path transform="translate(789 76.9)" d="m0 0c1.78 0.01 3.55 0.02 5.33 0.03 4.31 0.02 8.61 0.05 12.9 0.09 0.03 3.82 0.05 7.63 0.06 11.4 0.01 1.09 0.02 2.18 0.03 3.3 0 1.04 0 2.07 0.01 3.14 0 0.95 0.01 1.91 0.01 2.9-0.11 2.22-0.11 2.22-1.11 3.22-2.57 0.14-5.11 0.22-7.68 0.25-1.59 0.03-3.17 0.07-4.75 0.1-2.51 0.05-5.01 0.09-7.52 0.13-2.41 0.04-4.82 0.09-7.23 0.15-0.76 0-1.51 0.01-2.28 0.02-4.23-0.04-4.23-0.04-7.54 2.35-0.29 2.43-0.29 2.43-0.23 5.28v3.34c0.01 1.19 0.02 2.38 0.03 3.61 0.01 1.83 0.01 1.83 0.01 3.69 0.01 3.9 0.04 7.81 0.06 11.7 0.02 2.64 0.02 5.28 0.03 7.92 0.02 6.49 0.06 13 0.1 19.4 1.98 1 3.96 1.99 6 3v23c-10.6 0-21-0.58-29.6-7.52-8.44-8.71-8.74-19.1-8.73-30.6-0.01-1.25-0.01-2.51-0.01-3.8-0.01-2.64-0.01-5.28-0.01-7.92 0.01-2.69 0-5.38-0.02-8.07-0.02-3.9-0.02-7.81-0.02-11.7-0.01-1.19-0.02-2.39-0.03-3.61 0.05-9.95 1.21-18.7 8.32-26 12.3-10.4 28.7-9.03 43.8-8.88z" fill="#000002"/>
<path transform="translate(815,77)" d="m0 0c11.2 0.45 23.7 1.38 32 10 4.29 6.24 6.11 11.4 6.16 19 0.01 1.21 0.02 2.43 0.03 3.68 0 1.3 0.01 2.61 0.01 3.96 0.01 1 0.01 1 0.01 2.02 0.02 3.55 0.03 7.09 0.03 10.6 0.01 3.64 0.03 7.28 0.06 10.9 0.02 2.81 0.02 5.63 0.02 8.45 0.01 1.98 0.03 3.97 0.05 5.96-0.03 9.44-0.83 17.7-7.51 24.8-8.57 7.21-19 8.89-29.8 8.77-1.38-0.01-1.38-0.01-2.79-0.01-2.91-0.01-5.83-0.04-8.74-0.07-1.99-0.01-3.97-0.01-5.96-0.02-4.85-0.02-9.69-0.06-14.5-0.1v-23c2.34-0.05 4.67-0.1 7.08-0.15 2.27-0.05 4.53-0.11 6.8-0.17 1.57-0.04 3.15-0.07 4.72-0.1 2.26-0.05 4.53-0.11 6.79-0.17 0.7-0.01 1.4-0.02 2.13-0.03 3.61-0.11 6.46-0.29 9.48-2.38 1.24-2.48 1.14-4.17 1.16-6.95 0.01-1.03 0.02-2.07 0.03-3.13 0-1.12 0.01-2.23 0.01-3.38 0.01-1.72 0.01-1.72 0.02-3.47 0.01-2.43 0.02-4.85 0.02-7.27 0.01-3.72 0.04-7.43 0.07-11.2 0.01-2.35 0.01-4.7 0.02-7.05 0.01-1.12 0.02-2.23 0.04-3.38-0.01-1.04-0.01-2.07-0.01-3.14 0-0.91 0-1.82 0.01-2.76-0.2-2.36-0.2-2.36-1.64-4.08-1.94-1.56-1.94-1.56-5.73-2.24v-24z" fill="#000002"/>
<path transform="translate(669,124)" d="m0 0c3.92-0.08 7.83-0.14 11.8-0.19 1.64-0.04 1.64-0.04 3.31-0.07 11.5-0.11 22.8 1.51 31.4 9.67 5.64 6.26 7.5 13.4 7.51 21.6-0.67 9.49-3.02 16-9.75 22.8-8.6 5.96-16.7 7.41-27 7.36h-2.6c-2.83 0-5.65 0-8.48-0.01-1.96 0-3.92-0.01-5.89-0.01-5.16 0-10.3-0.01-15.5-0.02-5.26-0.01-10.5-0.02-15.8-0.02-10.3-0.01-20.7-0.03-31-0.05v-23c2.4-0.01 4.8-0.03 7.28-0.04 7.94-0.05 15.9-0.12 23.8-0.2 4.82-0.04 9.63-0.08 14.4-0.11 4.64-0.02 9.28-0.06 13.9-0.11 1.77-0.02 3.54-0.03 5.31-0.04 2.48-0.01 4.96-0.04 7.44-0.07 0.74 0 1.47 0.01 2.23 0.01 3.08-0.06 5.29-0.29 8.03-1.75 1.89-1.75 1.89-1.75 1.92-5.19-0.12-3.61-0.12-3.61-2.38-6.5-2.59-0.86-4.34-1.18-7.01-1.32-0.68-0.03-1.37-0.07-2.07-0.11-1.29-0.07-1.29-0.07-2.61-0.13-2.74-0.15-5.48-0.29-8.31-0.44v-22z" fill="#000002"/>
<path transform="translate(439,77)" d="m0 0h31v108h-31v-108z" fill="#000002"/>
<path transform="translate(1421,77)" d="m0 0h30v108h-30v-108z" fill="#000002"/>
<path transform="translate(1029,77)" d="m0 0h123v24c-13.9 0.32-27.8 0.57-41.7 0.73-6.46 0.07-12.9 0.17-19.4 0.33-6.24 0.15-12.5 0.23-18.7 0.27-2.37 0.02-4.75 0.07-7.12 0.15-18.1 0.56-18.1 0.56-23-2.84-3.69-3.71-5.84-7.94-8.04-12.6-1.02-1.6-2.06-3.18-3.12-4.75-1.88-3.25-1.88-3.25-1.88-5.25z" fill="#000002"/>
<path transform="translate(1167,77)" d="m0 0h108v24h-108v-24z" fill="#000002"/>
<path transform="translate(185,77)" d="m0 0h108v24h-108v-24z" fill="#000002"/>
<path transform="translate(484,162)" d="m0 0h108v23h-108v-23z" fill="#000002"/>
<path transform="translate(54,108)" d="m0 0h31v77h-31v-77z" fill="#000002"/>
<path transform="translate(1083,108)" d="m0 0h30v77h-30v-77z" fill="#000002"/>
<path transform="translate(484,77)" d="m0 0h30v77h-30v-77z" fill="#000002"/>
<path transform="translate(1376,139)" d="m0 0h30c0.06 3.61 0.12 7.22 0.19 10.9 0.04 1.68 0.04 1.68 0.08 3.39 0.07 8.81-1.22 16.5-7.41 23.1-8.57 7.21-19 8.89-29.8 8.77-1.38-0.01-1.38-0.01-2.79-0.01-2.91-0.01-5.83-0.04-8.74-0.07-1.99-0.01-3.97-0.01-5.96-0.02-4.85-0.02-9.69-0.06-14.5-0.1v-23c2.34-0.05 4.67-0.1 7.08-0.15 2.27-0.05 4.53-0.11 6.8-0.17 1.57-0.04 3.15-0.07 4.72-0.1 2.26-0.05 4.53-0.11 6.79-0.17 0.7-0.01 1.4-0.02 2.13-0.03 3.61-0.11 6.46-0.29 9.48-2.38 1.12-2.24 1.19-3.65 1.32-6.13 0.03-0.73 0.07-1.45 0.11-2.2 0.04-0.92 0.09-1.85 0.13-2.79 0.15-2.93 0.29-5.86 0.44-8.88z" fill="#000002"/>
<path transform="translate(954,77)" d="m0 0h31v81l-7-6c-1.97-1.36-3.95-2.71-5.93-4.04-8.09-5.96-16.4-12.7-18.7-22.9-2.2-15.9-0.64-32.2 0.66-48.1z" fill="#000002"/>
<path transform="translate(394,77)" d="m0 0h31v80c-12-6.02-25.4-16.4-31-29-4.09-16.2-1.53-34.6 0-51z" fill="#000002"/>
<path transform="translate(869,105)" d="m0 0 7 6c1.89 1.29 3.8 2.57 5.71 3.82 7.86 5.85 15.7 12.1 17.9 22.1 2.11 15.9 0.6 32.2-0.64 48.1h-30v-80z" fill="#000002"/>
<path transform="translate(309,105)" d="m0 0 7 6c1.89 1.29 3.8 2.57 5.71 3.82 7.86 5.85 15.7 12.1 17.9 22.1 2.11 15.9 0.6 32.2-0.64 48.1h-30v-80z" fill="#000002"/>
<path transform="translate(1368,77)" d="m0 0c11.2 0.45 23.7 1.38 32 10 4.12 5.99 6.14 11.1 6.1 18.4 0 0.93-0.01 1.85-0.01 2.8-0.01 1.17-0.02 2.33-0.03 3.53-0.02 3.71-0.04 7.42-0.06 11.2h-30c-0.31-8.81-0.31-8.81-0.39-11.6-0.03-0.72-0.06-1.44-0.1-2.19-0.02-0.74-0.05-1.48-0.08-2.24-0.55-2.55-1.36-3.43-3.43-4.99l-4-1v-24z" fill="#000002"/>
<path transform="translate(1206,124)" d="m0 0h69v22c-7.58 0.52-15.1 0.9-22.7 1.15-2.57 0.11-5.15 0.25-7.72 0.43-20.8 1.45-20.8 1.45-27.2-3.69-4.04-4.61-11.4-13.4-11.4-19.9z" fill="#000002"/>
<path transform="translate(225,124)" d="m0 0h68v22c-7.54 0.27-15.1 0.47-22.6 0.6-2.57 0.06-5.13 0.13-7.7 0.23-3.69 0.13-7.38 0.2-11.1 0.24-1.14 0.06-2.28 0.12-3.45 0.18-4.94 0-7.92-0.07-11.6-3.59-2.05-2.81-3.82-5.65-5.56-8.66-1.15-1.7-2.32-3.39-3.5-5.06-2.5-3.68-2.5-3.68-2.5-5.94z" fill="#000002"/>
<path transform="translate(999,162)" d="m0 0h31v23h-31v-23z" fill="#000002"/>
</svg>
