<?xml version="1.0" encoding="UTF-8"?>
<svg version="1.1" viewBox="0 0 1600 264" width="180" height="30" xmlns="http://www.w3.org/2000/svg">
<path transform="translate(39,77)" d="m0 0c12.8-0.05 25.7-0.08 38.5-0.1 5.96-0.01 11.9-0.03 17.9-0.05 5.76-0.02 11.5-0.03 17.3-0.04 2.19 0 4.38-0.01 6.57-0.02 31.2-0.15 31.2-0.15 39.8 7.21 6.02 5.99 10.4 11.1 10.4 19.9 0.01 0.67 0.02 1.34 0.03 2.03 0.02 2.21 0.02 4.41 0.02 6.62 0.01 1.54 0.01 3.09 0.02 4.63 0.02 3.23 0.02 6.46 0.01 9.69 0 4.13 0.03 8.26 0.07 12.4 0.02 3.19 0.02 6.38 0.02 9.56 0 1.52 0.01 3.04 0.03 4.56 0.11 10.5-0.89 16.8-8.31 24.4-6.64 5.09-15.2 7.38-23.5 7.36h-3.03c-1.07 0-2.14-0.01-3.24-0.01s-2.2-0.01-3.34-0.01c-3.51 0-7.03-0.01-10.5-0.03-2.39 0-4.77-0.01-7.16-0.01-5.84-0.01-11.7-0.03-17.5-0.05-1.28-3.85-1.15-7.49-1.12-11.5-0.01-1.16-0.01-1.16-0.02-2.34 0.01-3.31 0.09-6 1.14-9.16 1.83-0.03 1.83-0.03 3.7-0.06 4.53-0.08 9.07-0.16 13.6-0.26 1.96-0.04 3.92-0.07 5.88-0.1 2.82-0.05 5.64-0.11 8.46-0.17 1.31-0.01 1.31-0.01 2.66-0.03 0.82-0.02 1.64-0.04 2.48-0.06 1.08-0.02 1.08-0.02 2.18-0.04 2.38-0.33 4-1.03 6.04-2.28 1.52-3.04 1.15-6.17 1.12-9.5v-2.42c-0.06-8.25-0.27-16.5-0.49-24.8-0.05-1.55-0.09-3.1-0.13-4.65-0.05-2.21-0.12-4.41-0.18-6.62-0.04-1.29-0.08-2.57-0.11-3.9-0.08-3.19-0.08-3.19-1.21-6.16-1.01 0.02-2.02 0.04-3.07 0.05-9.54 0.17-19.1 0.29-28.6 0.36-4.91 0.05-9.82 0.1-14.7 0.19-4.74 0.09-9.48 0.14-14.2 0.16-1.8 0.01-3.61 0.04-5.41 0.09-14.1 0.32-14.1 0.32-18.5-2.55-1.81-2.03-3.1-3.92-4.39-6.3-0.88-1.26-1.76-2.52-2.65-3.77-0.77-1.2-1.53-2.4-2.29-3.61-0.4-0.61-0.79-1.22-1.2-1.86-2.86-4.49-2.86-4.49-2.86-6.76zm128 88 1 2z" fill="#F3F6F6"/>
<path transform="translate(308,56)" d="m0 0c6.56 2.41 10.1 7.1 14.5 12.3 2.89 3.33 6.1 6.34 9.28 9.39 2.19 2.31 2.19 2.31 2.19 4.31 0.57 0.26 1.14 0.51 1.73 0.77 2.53 1.37 4.44 2.94 6.58 4.85 0.72 0.64 1.44 1.27 2.18 1.92 2.04 2 3.9 4.02 5.76 6.19 3.92 4.53 8.12 8.75 12.4 13 0.74 0.73 1.48 1.46 2.24 2.22 0.72 0.71 1.44 1.43 2.18 2.16 0.68 0.68 1.36 1.36 2.07 2.06 1.16 1.15 2.34 2.3 3.53 3.43 1.15 1.11 2.26 2.27 3.36 3.44v2c0.56 0.23 1.11 0.45 1.69 0.69 2.97 1.68 4.96 3.84 7.31 6.31l5 5c1.03 1.04 2.06 2.08 3.09 3.12 7.43 7.51 7.43 7.51 15.4 14.5 2.57 2.32 4.69 5.01 6.91 7.65 1.67 1.94 1.67 1.94 4.45 3.44 2.95 1.77 3.21 3.02 4.19 6.31 0.17 2.82 0.23 5.54 0.2 8.36-0.01 0.8-0.01 1.59-0.01 2.4-0.01 2.52-0.04 5.04-0.07 7.55-0.01 1.71-0.01 3.43-0.02 5.14-0.02 4.18-0.06 8.37-0.1 12.6-5.71-4.75-11-9.84-16.2-15.1-1.38-1.37-2.75-2.75-4.13-4.13-1.46-1.46-2.93-2.93-4.39-4.4-3.06-3.08-6.13-6.15-9.19-9.22-7.07-7.08-14.1-14.2-21.2-21.2-6.47-6.49-13-13-19.4-19.5-3.04-3.04-6.08-6.09-9.12-9.14-1.44-1.45-2.88-2.89-4.32-4.33-1.74-1.75-3.49-3.5-5.23-5.25-8.23-8.25-8.23-8.25-17.3-15.5-3-2.27-5.1-4.36-5.89-8.15-0.6-5.69-0.33-11.4-0.1-17.1 0.04-1.75 0.08-3.49 0.11-5.24 0.09-4.25 0.22-8.51 0.39-12.8z" fill="#FAFDFD"/>
<path transform="translate(868,55)" d="m0 0c3.77 1.75 6.2 3.9 9 7l1 3c2 1.21 2 1.21 4 2v2c1.43 0.92 2.86 1.84 4.3 2.74 2.45 1.81 4.16 4.06 6.07 6.41 2.24 2.55 4.78 4.65 7.41 6.78 1.94 1.81 3.61 3.64 5.33 5.65 4.46 5.16 9.29 9.93 14.1 14.7 0.9 0.9 1.79 1.79 2.72 2.71 1.65 1.64 3.31 3.29 4.96 4.93 0.69 0.68 1.37 1.35 2.07 2.05 0.59 0.54 1.17 1.09 1.78 1.65 1.22 1.35 1.22 1.35 1.22 3.35l4 2v2c0.58 0.27 1.16 0.53 1.76 0.8 6.24 3.34 11 8.91 15.5 14.2 4.55 5.25 9.64 9.88 14.9 14.4 1.68 1.47 3.24 2.99 4.8 4.58 0.49 0.48 0.99 0.97 1.5 1.47 1.59 1.62 3.08 3.3 4.56 5.03 0.51 0.59 1.02 1.18 1.54 1.78 3.55 4.35 3.67 7.49 3.6 12.9-0.01 0.79-0.01 1.59-0.01 2.41-0.01 2.53-0.04 5.07-0.07 7.61-0.01 1.72-0.01 3.44-0.02 5.16-0.02 4.22-0.06 8.43-0.1 12.6-5.14-4.3-9.93-8.8-14.6-13.6-1.09-1.1-1.09-1.1-2.21-2.21-1.57-1.58-3.14-3.16-4.71-4.73-2.48-2.5-4.96-4.99-7.45-7.48-5.27-5.28-10.5-10.6-15.8-15.8-6.12-6.14-12.2-12.3-18.4-18.4-2.45-2.45-4.9-4.91-7.35-7.38-1.49-1.49-2.99-2.99-4.48-4.49-1.02-1.03-1.02-1.03-2.07-2.08-0.93-0.94-0.93-0.94-1.89-1.89-0.54-0.55-1.08-1.09-1.64-1.65-1.39-1.39-1.39-1.39-3.4-2.28v-2h-2c-1.38-1.4-1.38-1.4-3-3.38-5.38-6.32-11.1-12.4-17.6-17.6-0.79-0.66-1.57-1.32-2.38-2v-2c-0.99-0.33-1.98-0.66-3-1-3.17-2.97-3.95-4.6-4.45-8.96 0-1.54 0.02-3.08 0.06-4.62 0.01-0.82 0.01-1.63 0.02-2.47 0.02-2.59 0.07-5.17 0.12-7.76 0.02-1.76 0.04-3.52 0.05-5.28 0.05-4.31 0.12-8.61 0.2-12.9z" fill="#FAFCFC"/>
<path transform="translate(658 76.7)" d="m0 0c1.88 0.01 3.77 0.01 5.65 0.01 4.91 0.01 9.82 0.04 14.7 0.08 5.03 0.03 10.1 0.04 15.1 0.06 9.83 0.03 19.6 0.08 29.5 0.14l-1 2c-0.07 1.59-0.08 3.17-0.06 4.76 0.01 1.4 0.01 1.4 0.02 2.83 0.02 1.48 0.02 1.48 0.04 2.98 0.03 1.93 0.05 3.87 0.06 5.81 0.02 0.86 0.03 1.73 0.04 2.61-0.1 2.01-0.1 2.01-1.1 3.01-2.51 0.12-5 0.18-7.52 0.19-1.18 0.01-1.18 0.01-2.38 0.03-1.72 0.01-3.43 0.03-5.14 0.04-2.71 0.02-5.42 0.05-8.13 0.08-5.76 0.06-11.5 0.11-17.3 0.16-6.66 0.06-13.3 0.12-20 0.19-2.68 0.03-5.35 0.05-8.03 0.07-1.63 0.02-3.27 0.04-4.9 0.05-0.75 0.01-1.5 0.01-2.27 0.02-3.82-0.02-3.82-0.02-7.38 1.17-1.2 3.62-1.11 6.93-1.06 10.7 0 0.7 0.01 1.4 0.01 2.13 0.01 1.73 0.03 3.45 0.05 5.18 5.02 1.98 9.56 2.41 14.9 2.63 0.78 0.04 1.56 0.08 2.37 0.12 1.92 0.09 3.83 0.17 5.75 0.25-0.49 0.99-0.49 0.99-1 2-0.08 1.52-0.11 3.05-0.1 4.57 0.01 0.9 0.01 1.8 0.01 2.72 0.01 0.94 0.02 1.87 0.03 2.84 0 0.94 0.01 1.89 0.01 2.86 0.01 2.34 0.03 4.68 0.05 7.01-4.23 0.03-8.46 0.05-12.7 0.07-1.19 0-2.39 0.01-3.63 0.02-1.15 0-2.31 0.01-3.5 0.01-1.07 0.01-2.13 0.01-3.22 0.02-9.15-0.36-16.7-4.16-23.4-10.3-2.11-2.4-2.99-4.7-3.6-7.82h-2c-0.99-4.96-1.19-9.71-1.19-14.8 0-0.79 0.01-1.59 0.01-2.41 0.07-7.4 0.65-14.2 4.18-20.8h2c0.15-0.72 0.29-1.44 0.44-2.18 2.48-4.47 5.93-5.91 10.6-7.82 11.6-3.3 23.1-3.4 35.1-3.29z" fill="#F5F7F7"/>
<path transform="translate(185,108)" d="m0 0h31l-1 2c-0.06 1.67-0.06 3.33-0.02 5 0.03 1.58 0.03 1.58 0.06 3.2 0.03 1.11 0.05 2.22 0.08 3.37 0.02 1.02 0.04 2.04 0.06 3.09 0.08 3.82 0.17 7.64 0.26 11.5 0.18 8.54 0.37 17.1 0.56 25.9h77l-1 3v20h-107c-1.48-2.96-1.13-5.6-1.13-8.9v-2.15c-0.01-2.34-0.01-4.69 0-7.04 0-1.63 0-3.26-0.01-4.89 0-3.42 0-6.83 0.01-10.2 0.01-4.39 0-8.77 0-13.2-0.01-3.36-0.01-6.72 0-10.1 0-1.62 0-3.23-0.01-4.85 0-2.26 0.01-4.52 0.01-6.77v-3.9c0.13-3 0.13-3 1.13-5z" fill="#F0F3F3"/>
<path transform="translate(1506,77)" d="m0 0h31l-1 6c-0.08 1.53-0.12 3.06-0.12 4.59v2.63c0 0.93 0 1.86 0.01 2.82v3.02c0 3.28 0 6.56 0.01 9.84 0 2.28 0.01 4.56 0.01 6.83 0 5.99 0.01 12 0.02 18 0.01 6.11 0.02 12.2 0.02 18.3 0.01 12 0.03 24 0.05 36h-30c-1.58-3.16-1.24-6.59-1.32-10.1-0.02-0.8-0.04-1.59-0.06-2.41-0.06-2.55-0.12-5.1-0.18-7.64-0.05-1.73-0.09-3.46-0.13-5.18-0.11-4.23-0.21-8.47-0.31-12.7-9.57-0.33-19.1-0.66-29-1l-2-4c-0.99-0.33-1.98-0.66-3-1-0.7-1.65-1.36-3.32-2-5-0.98-1.02-1.98-2.02-3-3-2.09-3.14-3.07-5.28-4-9 14.5-0.33 29-0.66 44-1-0.04-14.4-0.04-14.4-0.09-28.8 0-1.8-0.01-3.6-0.01-5.4 0-0.94-0.01-1.88-0.01-2.85v-2.7c-0.01-0.78-0.01-1.56-0.01-2.36 0.12-1.91 0.12-1.91 1.12-3.91zm29 1 1 2z" fill="#F6F9F9"/>
<path transform="translate(1167,108)" d="m0 0h30l-1 2c-0.06 1.64-0.06 3.27-0.02 4.91 0.02 1.03 0.04 2.07 0.06 3.14 0.03 1.09 0.05 2.18 0.08 3.3 0.02 1 0.04 2 0.06 3.03 0.08 3.75 0.17 7.5 0.26 11.2 0.18 8.38 0.37 16.8 0.56 25.4l78 1-1 3v20h-107c-1.48-2.96-1.13-5.6-1.13-8.9v-2.15c-0.01-2.34-0.01-4.69 0-7.04 0-1.63 0-3.26-0.01-4.89 0-3.42 0-6.83 0.01-10.2 0.01-4.39 0-8.77 0-13.2-0.01-3.36-0.01-6.72 0-10.1 0-1.62 0-3.23-0.01-4.85 0-2.26 0.01-4.52 0.01-6.77v-3.9c0.13-3 0.13-3 1.13-5z" fill="#F0F3F3"/>
<path transform="translate(789 76.8)" d="m0 0c1.76 0.02 3.52 0.03 5.27 0.04 4.25 0.03 8.49 0.09 12.7 0.15l-1 24c-2.49 0.03-4.98 0.07-7.55 0.11-2.41 0.05-4.83 0.1-7.24 0.15-1.68 0.03-3.35 0.06-5.03 0.08-2.41 0.04-4.82 0.09-7.23 0.15-0.75 0-1.5 0.01-2.27 0.02-3.92 0.05-3.92 0.05-7.38 1.68-1.76 2.45-1.7 4.1-1.73 7.11-0.02 1.08-0.04 2.16-0.06 3.27-0.01 1.17-0.02 2.33-0.02 3.53-0.02 1.2-0.04 2.39-0.06 3.62-0.05 3.82-0.08 7.64-0.12 11.5-0.03 2.58-0.07 5.17-0.1 7.76-0.09 6.35-0.15 12.7-0.21 19 0.95 0.29 1.9 0.57 2.88 0.87 3.12 1.13 3.12 1.13 5.12 3.13l-1 1c-0.09 1.56-0.11 3.12-0.1 4.69 0.01 0.94 0.01 1.89 0.01 2.86 0.01 0.99 0.02 1.99 0.03 3.01 0 1 0.01 1.99 0.01 3.02 0.01 2.47 0.03 4.95 0.05 7.42-9.96 0.3-20.4-0.91-28.5-7.39-4.39-4.74-7.52-10.2-8.5-16.6h-1c-0.08-7.1-0.13-14.2-0.16-21.3-0.02-2.4-0.04-4.81-0.07-7.21-0.38-36.4-0.38-36.4 5.72-43.3 1.24-1.07 1.24-1.07 2.51-2.17 0.63-0.63 1.25-1.27 1.89-1.92 11.3-10.1 28.9-8.49 43.1-8.27z" fill="#F8FBFB"/>
<path transform="translate(1342 76.8)" d="m0 0c1.76 0.02 3.52 0.03 5.29 0.04 4.26 0.03 8.51 0.09 12.8 0.15l-1 2c-0.08 1.59-0.1 3.19-0.1 4.79 0.01 0.94 0.01 1.88 0.01 2.85 0.01 0.98 0.02 1.97 0.03 2.98 0 1 0.01 1.99 0.01 3.01 0.02 2.46 0.03 4.91 0.05 7.37-3.04 1.52-6.22 1.17-9.56 1.21-1.53 0.03-3.07 0.06-4.6 0.08-2.42 0.05-4.85 0.08-7.27 0.11-2.34 0.03-4.67 0.07-7.01 0.12-0.72 0-1.45 0.01-2.2 0.01-2.26 0.02-2.26 0.02-5.36 0.47-2.23 3.34-2.24 4.39-2.22 8.3v3.27c0.01 1.17 0.02 2.33 0.03 3.53 0 1.79 0 1.79 0.01 3.62 0.01 3.82 0.03 7.64 0.06 11.5 0.01 2.58 0.02 5.17 0.02 7.76 0.03 6.35 0.06 12.7 0.1 19 2.31 0.99 4.62 1.98 7 3l-1 23c-10.2 0-21.1-0.82-29-8-7.45-8.72-7.45-8.72-7.44-14.1 0.15-0.95 0.29-1.89 0.44-2.87h-2c-0.02-6.78-0.04-13.6-0.05-20.3-0.01-2.3-0.01-4.61-0.02-6.91-0.02-3.32-0.02-6.65-0.03-9.97 0-1.01-0.01-2.03-0.01-3.08 0-24.1 0-24.1 8.11-33.7 12.6-10.3 29.6-9.42 44.9-9.19z" fill="#F8FAFA"/>
<path transform="translate(669,124)" d="m0 0c3.91-0.13 7.82-0.22 11.7-0.27 1.97-0.04 3.94-0.11 5.91-0.17 10.4-0.13 19.4 1.63 27.4 8.69 6.63 7.42 8.37 16.4 8.21 26.1-0.59 7.47-2.85 13.4-8.05 18.9-8.26 6.73-17.7 7.92-27.9 7.87h-2.6c-2.83 0-5.65 0-8.48-0.01-1.96 0-3.92-0.01-5.89-0.01-5.16 0-10.3-0.01-15.5-0.02-5.26-0.01-10.5-0.02-15.8-0.02-10.3-0.01-20.7-0.03-31-0.05-1.13-2.26-1.13-3.52-1.13-6.03 0-0.79-0.01-1.58-0.01-2.4 0.01-0.83 0.01-1.65 0.02-2.51-0.01-0.82-0.01-1.65-0.02-2.5 0-0.79 0.01-1.58 0.01-2.4v-2.2c0.13-1.96 0.13-1.96 1.13-4.96 0.99-0.01 1.99-0.01 3.01-0.02 9.36-0.05 18.7-0.13 28.1-0.22 4.82-0.04 9.63-0.08 14.4-0.11 4.64-0.02 9.28-0.06 13.9-0.11 1.77-0.02 3.54-0.03 5.31-0.04 2.48-0.01 4.96-0.04 7.44-0.07 0.74 0 1.47 0.01 2.23 0.01 3.13-0.06 5.28-0.28 8.03-1.82 1.75-1.54 1.75-1.54 1.92-3.93-0.38-3.3-0.38-3.3-2.38-8.69l-19-1v-2h-2c-0.03-2.96-0.05-5.92-0.06-8.88-0.01-0.84-0.02-1.68-0.03-2.55 0-0.8 0-1.61-0.01-2.44 0-0.74-0.01-1.48-0.01-2.25 0.11-1.88 0.11-1.88 1.11-3.88z" fill="#EFF2F2"/>
<path transform="translate(815,77)" d="m0 0c9.83 0.29 18.2 1.58 27 6v2c0.78 0.23 1.57 0.45 2.38 0.69 2.62 1.31 2.62 1.31 3.74 3.5 0.29 0.93 0.58 1.85 0.88 2.81 0.5 0.9 1.01 1.81 1.53 2.74 2.59 6.04 1.94 12.8 1.94 19.3 0.01 1.47 0.01 2.94 0.02 4.42 0.02 3.07 0.02 6.14 0.01 9.22 0 3.92 0.03 7.84 0.07 11.8 0.02 3.03 0.02 6.07 0.02 9.1 0 1.45 0.01 2.89 0.03 4.33 0.1 8.64-0.34 15.1-5.62 22.2h-2c-0.5 1.49-0.5 1.49-1 3-5.64 3.81-11.3 5.63-18 6v1h-42c-1.28-3.85-1.15-7.49-1.12-11.5-0.01-0.77-0.01-1.54-0.02-2.34 0.01-3.31 0.09-6 1.14-9.16 0.98-0.02 1.96-0.04 2.97-0.06 3.63-0.08 7.27-0.16 10.9-0.26 1.57-0.04 3.15-0.07 4.72-0.1 2.26-0.05 4.53-0.11 6.79-0.17 0.7-0.01 1.4-0.02 2.13-0.03 3.72-0.11 6.24-0.6 9.48-2.38 0.15-7.76 0.26-15.5 0.33-23.3 0.03-2.64 0.07-5.28 0.12-7.92 0.08-3.79 0.11-7.58 0.14-11.4 0.03-1.18 0.06-2.36 0.09-3.58 0-3.07-0.04-5.84-0.68-8.84-2.78-2.75-2.78-2.75-6-4-1.16-2.32-1.13-3.7-1.13-6.28 0-0.84-0.01-1.68-0.01-2.55 0.01-0.88 0.01-1.76 0.02-2.67-0.01-1.32-0.01-1.32-0.02-2.67 0-0.84 0.01-1.68 0.01-2.55v-2.34c0.13-1.94 0.13-1.94 1.13-3.94z" fill="#F5F8F8"/>
<path transform="translate(439,77)" d="m0 0h31l-1 2c-0.09 1.42-0.12 2.84-0.12 4.26v2.72c0 0.98 0 1.96 0.01 2.98v3.13c0 3.43 0 6.86 0.01 10.3 0 2.38 0.01 4.75 0.01 7.12 0 6.26 0.01 12.5 0.02 18.8 0.01 6.39 0.02 12.8 0.02 19.2 0.01 12.5 0.03 25 0.05 37.6h-30c-0.92-2.77-1.13-4.4-1.13-7.26 0-0.87 0-1.73-0.01-2.63 0.01-0.95 0.01-1.9 0.01-2.87v-3.04c-0.01-3.32-0.01-6.64 0-9.95 0-2.3 0-4.6-0.01-6.9 0-4.83 0-9.65 0.01-14.5 0.01-6.2 0-12.4 0-18.6-0.01-4.75-0.01-9.5 0-14.2 0-2.29 0-4.57-0.01-6.86 0-3.18 0.01-6.37 0.01-9.56 0-0.95 0-1.9-0.01-2.88 0.01-0.86 0.01-1.73 0.01-2.62v-2.28c0.13-1.85 0.13-1.85 1.13-3.85z" fill="#F9FCFC"/>
<path transform="translate(1421,77)" d="m0 0h30l-1 2c-0.09 1.42-0.12 2.84-0.12 4.26v2.72c0 0.98 0 1.96 0.01 2.98v3.13c0 3.43 0 6.86 0.01 10.3 0 2.38 0.01 4.75 0.01 7.12 0 6.26 0.01 12.5 0.02 18.8 0.01 6.39 0.02 12.8 0.02 19.2 0.01 12.5 0.03 25 0.05 37.6-3.95 0.07-7.9 0.13-11.8 0.16-2.01 0.03-4.02 0.07-6.02 0.1-1.26 0.01-2.51 0.02-3.81 0.03-1.16 0.02-2.32 0.03-3.52 0.05-0.93-0.11-1.85-0.22-2.8-0.34-2.07-3.1-2.25-3.75-2.25-7.26 0-0.87-0.01-1.73-0.01-2.63 0.01-0.95 0.01-1.9 0.02-2.87-0.01-1.51-0.01-1.51-0.01-3.04 0-3.32 0.01-6.64 0.02-9.95v-6.9c0-4.83 0.01-9.65 0.02-14.5 0.02-6.2 0.03-12.4 0.02-18.6 0-4.75 0.01-9.5 0.02-14.2v-6.86c0.01-3.18 0.01-6.37 0.02-9.56v-2.88c0.01-0.86 0.01-1.73 0.02-2.62v-2.28c0.13-1.85 0.13-1.85 1.13-3.85z" fill="#F9FCFC"/>
<path transform="translate(1029,77)" d="m0 0h123l-1 2c-0.07 1.58-0.08 3.17-0.06 4.75 0.01 1.41 0.01 1.41 0.02 2.84 0.02 1.47 0.02 1.47 0.04 2.97 0.03 1.94 0.05 3.88 0.06 5.82 0.01 0.86 0.03 1.72 0.04 2.61-0.1 2.01-0.1 2.01-1.1 3.01-1.35 0.11-2.7 0.16-4.05 0.18-0.88 0.02-1.75 0.03-2.65 0.04-1.45 0.02-1.45 0.02-2.93 0.04-1.01 0.01-2.02 0.03-3.06 0.04-9.35 0.13-18.7 0.2-28 0.25-6.28 0.03-12.6 0.09-18.8 0.18-6.07 0.1-12.1 0.15-18.2 0.16-2.31 0.02-4.63 0.05-6.94 0.09-18.1 0.34-18.1 0.34-23.4-2.94-2.06-2.27-3.47-4.31-4.83-7.04-0.67-0.99-1.34-1.98-2.02-3-0.45-0.8-0.9-1.61-1.36-2.44-1.43-2.57-2.53-4.47-4.62-6.56v-3z" fill="#F0F3F3"/>
<path transform="translate(1167,77)" d="m0 0h108l-1 2c-0.07 1.58-0.08 3.17-0.06 4.75 0.01 1.41 0.01 1.41 0.02 2.84 0.02 1.47 0.02 1.47 0.04 2.97 0.03 1.94 0.05 3.88 0.06 5.82 0.01 0.86 0.03 1.72 0.04 2.61-0.1 2.01-0.1 2.01-1.1 3.01-1.36 0.1-2.73 0.14-4.09 0.14-1.33 0.01-1.33 0.01-2.68 0.02h-2.95c-1.53 0.01-1.53 0.01-3.09 0.02-3.4 0.01-6.79 0.02-10.2 0.02-2.34 0.01-4.69 0.01-7.04 0.02-4.93 0.01-9.86 0.02-14.8 0.02-6.33 0.01-12.7 0.03-19 0.06-4.85 0.02-9.7 0.02-14.6 0.02-2.33 0.01-4.67 0.01-7 0.03-3.26 0.01-6.52 0.01-9.78 0.01-0.97 0.01-1.95 0.01-2.95 0.02-1.33 0-1.33 0-2.68-0.01h-2.34c-0.93-0.18-0.93-0.18-1.88-0.37-2.08-3.12-2.25-3.83-2.23-7.38 0-1.26 0-1.26 0.01-2.54 0.01-0.87 0.02-1.74 0.03-2.64v-2.66c0.05-6.5 0.05-6.5 1.19-8.78z" fill="#F0F4F4"/>
<path transform="translate(185,77)" d="m0 0h108l-1 2c-0.07 1.58-0.08 3.17-0.06 4.75 0.01 1.41 0.01 1.41 0.02 2.84 0.02 1.47 0.02 1.47 0.04 2.97 0.03 1.94 0.05 3.88 0.06 5.82 0.01 0.86 0.03 1.72 0.04 2.61-0.1 2.01-0.1 2.01-1.1 3.01-1.36 0.1-2.73 0.14-4.09 0.14-1.33 0.01-1.33 0.01-2.68 0.02h-2.95c-1.53 0.01-1.53 0.01-3.09 0.02-3.4 0.01-6.79 0.02-10.2 0.02-2.34 0.01-4.69 0.01-7.04 0.02-4.93 0.01-9.86 0.02-14.8 0.02-6.33 0.01-12.7 0.03-19 0.06-4.85 0.02-9.7 0.02-14.6 0.02-2.33 0.01-4.67 0.01-7 0.03-3.26 0.01-6.52 0.01-9.78 0.01-0.97 0.01-1.95 0.01-2.95 0.02-1.33 0-1.33 0-2.68-0.01h-2.34c-0.93-0.18-0.93-0.18-1.88-0.37-2.08-3.12-2.25-3.83-2.23-7.38 0-1.26 0-1.26 0.01-2.54 0.01-0.87 0.02-1.74 0.03-2.64v-2.66c0.05-6.5 0.05-6.5 1.19-8.78z" fill="#F0F4F4"/>
<path transform="translate(484,162)" d="m0 0h108l-1 3v20h-107c-1.13-2.26-1.13-3.52-1.13-6.03 0-0.79-0.01-1.58-0.01-2.4 0.01-0.83 0.01-1.65 0.02-2.51-0.01-0.82-0.01-1.65-0.02-2.5 0-0.79 0.01-1.58 0.01-2.4v-2.2c0.13-1.96 0.13-1.96 1.13-4.96z" fill="#E5E8E8"/>
<path transform="translate(54,108)" d="m0 0h31l-1 2c-0.09 2.38-0.13 4.73-0.11 7.11v2.22c0 2.42 0 4.85 0.01 7.27 0 1.68 0.01 3.36 0.01 5.04 0 4.42 0.01 8.84 0.02 13.3 0.01 4.52 0.02 9.03 0.02 13.5 0.01 8.85 0.03 17.7 0.05 26.6h-29c-2.07-4.14-2.25-5.89-2.24-10.4-0.01-1.3-0.01-2.6-0.01-3.94 0-1.41 0.01-2.83 0.02-4.24v-4.37c0-3.06 0.01-6.11 0.02-9.17 0.02-3.9 0.03-7.8 0.02-11.7 0-3.01 0.01-6.02 0.02-9.03v-4.31c0.01-2.02 0.01-4.03 0.02-6.05 0.01-1.15 0.01-2.29 0.02-3.47 0.14-3.46 0.64-6.89 1.13-10.3z" fill="#FAFDFD"/>
<path transform="translate(484,77)" d="m0 0h30l-1 2c-0.09 2.38-0.13 4.73-0.11 7.11v2.22c0 2.42 0 4.85 0.01 7.27 0 1.68 0.01 3.36 0.01 5.04 0 4.42 0.01 8.84 0.02 13.3 0.01 4.52 0.02 9.03 0.02 13.5 0.01 8.85 0.03 17.7 0.05 26.6h-29c-1.48-2.96-1.13-5.6-1.13-8.9v-2.15c-0.01-2.34-0.01-4.69 0-7.04 0-1.63 0-3.26-0.01-4.89 0-3.42 0-6.83 0.01-10.2 0.01-4.39 0-8.77 0-13.2-0.01-3.36-0.01-6.72 0-10.1 0-1.62 0-3.23-0.01-4.85 0-2.26 0.01-4.52 0.01-6.77v-3.9c0.13-3 0.13-3 1.13-5z" fill="#F8FBFB"/>
<path transform="translate(1083,108)" d="m0 0h30l-1 2c-0.09 2.38-0.13 4.73-0.11 7.11v2.22c0 2.42 0 4.85 0.01 7.27 0 1.68 0.01 3.36 0.01 5.04 0 4.42 0.01 8.84 0.02 13.3 0.01 4.52 0.02 9.03 0.02 13.5 0.01 8.85 0.03 17.7 0.05 26.6h-29c-1.48-2.96-1.13-5.6-1.13-8.9v-2.15c-0.01-2.34-0.01-4.69 0-7.04 0-1.63 0-3.26-0.01-4.89 0-3.42 0-6.83 0.01-10.2 0.01-4.39 0-8.77 0-13.2-0.01-3.36-0.01-6.72 0-10.1 0-1.62 0-3.23-0.01-4.85 0-2.26 0.01-4.52 0.01-6.77v-3.9c0.13-3 0.13-3 1.13-5z" fill="#FAFDFD"/>
<path transform="translate(1376,139)" d="m0 0h30l-1 2c-0.03 1.78 0.01 3.57 0.08 5.35 0.02 1.08 0.05 2.16 0.08 3.27 0.06 2.27 0.14 4.53 0.23 6.8 0.16 8.29-1.24 14.2-7.03 20.3-11.7 9.9-26.9 8.78-41.2 8.52-1.97-0.02-3.93-0.04-5.9-0.05-4.76-0.05-9.53-0.12-14.3-0.2-1.28-3.85-1.15-7.49-1.12-11.5-0.01-0.77-0.01-1.54-0.02-2.34 0.01-3.31 0.09-6 1.14-9.16 1.47-0.03 1.47-0.03 2.97-0.06 3.63-0.08 7.27-0.16 10.9-0.26 1.57-0.04 3.15-0.07 4.72-0.1 2.26-0.05 4.53-0.11 6.79-0.17 0.7-0.01 1.4-0.02 2.13-0.03 3.63-0.11 6.38-0.4 9.48-2.38 0.09-1.79 0.09-1.79 0.18-3.61 0.09-1.57 0.17-3.14 0.26-4.7 0.04-0.79 0.08-1.57 0.12-2.38 0.06-1.14 0.06-1.14 0.12-2.3 0.04-0.69 0.08-1.39 0.11-2.11 0.21-1.9 0.21-1.9 1.21-4.9z" fill="#F0F3F3"/>
<path transform="translate(394,77)" d="m0 0h31l-1 2c-0.02 2.62 0.03 5.2 0.12 7.81 0.02 0.8 0.05 1.59 0.07 2.41 0.05 1.7 0.11 3.41 0.16 5.12 0.14 4.45 0.27 8.91 0.39 13.4 0.02 0.89 0.05 1.77 0.07 2.69 0.85 32 0.85 32-0.81 46.6-6.04-4.99-11.5-10.4-17-16-3.41-3.51-3.41-3.51-7.29-6.46-3.75-2.76-6.26-5.26-7.19-9.96-0.69-7.33-0.38-14.7-0.14-22 0.03-2.25 0.06-4.51 0.09-6.76 0.07-4.1 0.15-8.21 0.27-12.3 0.03-0.82 0.05-1.64 0.08-2.49 0.18-2 0.18-2 1.18-4z" fill="#F7FAFA"/>
<path transform="translate(954,77)" d="m0 0h31l-1 2c-0.09 2.47-0.13 4.92-0.11 7.39v2.3c0 2.52 0 5.05 0.01 7.57 0 1.74 0.01 3.49 0.01 5.24 0 4.6 0.01 9.2 0.02 13.8 0.01 4.69 0.02 9.38 0.02 14.1 0.01 9.21 0.03 18.4 0.05 27.6-0.44-0.38-0.87-0.77-1.32-1.17-3.73-3.25-7.54-6.17-11.6-8.98-9.04-6.79-17.4-13.9-19.2-25.6-3.22-33.5-3.22-33.5 2.12-44.2z" fill="#F7FAFA"/>
<path transform="translate(309,105)" d="m0 0c2.93 2.85 5.67 5.76 8.31 8.88 3.58 4.12 7.51 7.63 11.7 11.1 1.29 1.08 2.59 2.16 3.88 3.25 0.55 0.46 1.1 0.92 1.67 1.39 2.16 2.03 3.38 3.69 3.69 6.66-0.01 1.35-0.01 1.35-0.01 2.72v3.1c-0.01 1.1-0.02 2.2-0.03 3.33s-0.01 2.25-0.01 3.42c-0.01 3.6-0.04 7.21-0.07 10.8-0.01 2.44-0.01 4.88-0.02 7.33-0.02 5.99-0.06 12-0.1 18h-29c-1.49-2.98-1.14-6.02-1.13-9.28v-2.27c-0.01-2.49-0.01-4.97 0-7.45 0-1.73 0-3.45-0.01-5.17 0-3.61 0-7.21 0.01-10.8 0.01-4.64 0-9.28 0-13.9-0.01-3.56-0.01-7.11 0-10.7 0-1.72 0-3.43-0.01-5.14 0-2.38 0.01-4.76 0.01-7.15 0-0.71 0-1.43-0.01-2.16 0.03-4.88 0.03-4.88 1.14-5.99z" fill="#FBFEFE"/>
<path transform="translate(869,105)" d="m0 0c16 16 16 16 18.6 18.7 1.8 1.77 3.57 3.39 5.55 4.94 4.66 3.94 4.66 3.94 5.05 7.68-0.01 1.35-0.01 1.35-0.01 2.72v3.1c-0.01 1.1-0.02 2.2-0.03 3.33s-0.01 2.25-0.01 3.42c-0.01 3.6-0.04 7.21-0.07 10.8-0.01 2.44-0.01 4.88-0.02 7.33-0.02 5.99-0.06 12-0.1 18h-28c-2.07-4.13-2.28-6.87-2.24-11.3 0-0.73-0.01-1.46-0.01-2.22 0-2.41 0.01-4.81 0.02-7.22v-5.02c0-3.5 0.01-7.01 0.02-10.5 0.02-4.5 0.03-9 0.02-13.5 0-3.45 0.01-6.9 0.02-10.4v-4.98c0.01-2.31 0.01-4.62 0.02-6.94 0.01-1.97 0.01-1.97 0.02-3.99 0.13-2.94 0.13-2.94 1.13-3.94z" fill="#FBFEFE"/>
<path transform="translate(1368,77)" d="m0 0c10.2 0.3 18.9 1.47 27.8 6.62 5.25 5.7 9.33 12.3 9.29 20 0 1.01-0.01 2.02-0.01 3.07-0.01 1.28-0.02 2.57-0.03 3.89-0.02 4.09-0.04 8.17-0.06 12.4h-29c-0.98-2.94-1.08-4.7-1-7.75 0.09-6.19 0.09-6.19-1-12.2-2.92-1.88-2.92-1.88-6-3-1.16-2.32-1.13-3.7-1.13-6.28 0-0.84-0.01-1.68-0.01-2.55 0.01-0.88 0.01-1.76 0.02-2.67-0.01-0.88-0.01-1.76-0.02-2.67 0-0.84 0.01-1.68 0.01-2.55v-2.34c0.13-1.94 0.13-1.94 1.13-3.94z" fill="#F8FBFB"/>
<path transform="translate(1206,124)" d="m0 0h69l-1 2c-0.08 1.52-0.11 3.05-0.1 4.57 0.01 0.9 0.01 1.79 0.01 2.72 0.01 0.93 0.02 1.87 0.03 2.83 0 0.95 0.01 1.89 0.01 2.87 0.01 2.34 0.03 4.67 0.05 7.01-7.49 0.43-15 0.73-22.5 0.93-2.54 0.09-5.09 0.2-7.63 0.35-20.6 1.17-20.6 1.17-26.2-2.96-4.84-5.31-7.49-11.6-9.74-18.3h-2v-2z" fill="#EEF1F1"/>
<path transform="translate(225,124)" d="m0 0h68l-1 2c-0.08 1.52-0.11 3.05-0.1 4.57 0.01 0.9 0.01 1.79 0.01 2.72 0.01 0.93 0.02 1.87 0.03 2.83 0 0.95 0.01 1.89 0.01 2.87 0.01 2.34 0.03 4.67 0.05 7.01-7.4 0.28-14.8 0.47-22.2 0.6-2.52 0.06-5.04 0.13-7.55 0.23-22.1 0.82-22.1 0.82-26.7-3.26-2.46-3.32-4.53-6.33-4.53-10.6h-2c-4-6.75-4-6.75-4-9z" fill="#EEF1F1"/>
<path transform="translate(999,162)" d="m0 0h31l-1 3c-0.08 1.55-0.11 3.11-0.1 4.67 0 0.8 0.01 1.61 0.01 2.44 0.01 1.01 0.02 2.03 0.03 3.08 0.02 3.24 0.04 6.47 0.06 9.81h-30c-1.28-3.85-1.15-7.49-1.12-11.5-0.01-0.77-0.01-1.54-0.02-2.34 0.01-3.31 0.09-6 1.14-9.16z" fill="#E5E8E8"/>
<path transform="translate(1536,173)" d="m0 0h1v11h-1v-11z" fill="#070B0A"/>
<path transform="translate(1536,83)" d="m0 0h1v9h-1v-9z" fill="#070B0A"/>
</svg>
